<svg width="1440" height="1180" viewBox="0 0 1440 1180" fill="none" xmlns="http://www.w3.org/2000/svg">
<g filter="url(#filter0_f_2336_2)">
<ellipse cx="719.5" cy="574.5" rx="305.5" ry="124.5" fill="#287F9C"/>
</g>
<ellipse cx="497.918" cy="593.904" rx="9.57478" ry="9.54151" transform="rotate(27.778 497.918 593.904)" fill="url(#paint0_radial_2336_2)"/>
<g filter="url(#filter1_f_2336_2)">
<ellipse cx="719.5" cy="634" rx="515.5" ry="84" fill="#0047FF" fill-opacity="0.5"/>
</g>
<g filter="url(#filter2_b_2336_2)">
<path d="M1115.3 863.685C1105.99 881.359 1086.12 892.494 1057.98 897.404C1029.85 902.313 993.546 900.982 951.55 893.811C867.564 879.471 760.912 841.795 651.515 784.17C542.119 726.545 450.726 659.902 391.397 598.751C361.73 568.173 340.101 538.99 328.238 513.014C316.371 487.03 314.313 464.342 323.622 446.668C332.932 428.995 352.806 417.86 380.946 412.95C409.078 408.041 445.379 409.372 487.375 416.543C571.361 430.883 678.013 468.559 787.409 526.184C896.806 583.808 988.199 650.452 1047.53 711.603C1077.19 742.18 1098.82 771.364 1110.69 797.34C1122.55 823.324 1124.61 846.012 1115.3 863.685Z" stroke="url(#paint1_linear_2336_2)"/>
</g>
<ellipse cx="326.682" cy="507.672" rx="7.17641" ry="7.15148" transform="rotate(27.778 326.682 507.672)" fill="url(#paint2_radial_2336_2)"/>
<ellipse cx="1109.75" cy="794.747" rx="5.00625" ry="4.98886" transform="rotate(27.778 1109.75 794.747)" fill="url(#paint3_radial_2336_2)"/>
<g filter="url(#filter3_b_2336_2)">
<rect x="312.5" y="583" width="107.5" height="43" rx="8" transform="rotate(180 312.5 583)" fill="url(#paint4_linear_2336_2)" fill-opacity="0.19"/>
<rect x="311.5" y="582" width="105.5" height="41" rx="7" transform="rotate(180 311.5 582)" stroke="url(#paint5_linear_2336_2)" stroke-opacity="0.19" stroke-width="2" style="mix-blend-mode:plus-lighter"/>
</g>
<path d="M255.985 546.615C248.394 546.615 242.211 552.798 242.211 560.389C242.211 567.98 248.394 574.163 255.985 574.163C259.286 574.163 262.317 572.991 264.693 571.045L272.917 579.269C273.044 579.401 273.196 579.506 273.364 579.579C273.533 579.652 273.714 579.69 273.897 579.692C274.08 579.694 274.262 579.659 274.431 579.59C274.601 579.521 274.755 579.418 274.885 579.289C275.014 579.159 275.117 579.005 275.186 578.835C275.255 578.666 275.29 578.484 275.288 578.301C275.286 578.117 275.248 577.936 275.175 577.768C275.103 577.6 274.997 577.448 274.865 577.321L266.641 569.097C268.587 566.721 269.759 563.69 269.759 560.389C269.759 552.798 263.576 546.615 255.985 546.615ZM255.985 549.37C262.087 549.37 267.004 554.287 267.004 560.389C267.004 566.491 262.087 571.408 255.985 571.408C249.883 571.408 244.966 566.491 244.966 560.389C244.966 554.287 249.883 549.37 255.985 549.37Z" fill="url(#paint6_linear_2336_2)"/>
<g filter="url(#filter4_b_2336_2)">
<rect x="355.769" y="729" width="50.7692" height="48" rx="8" transform="rotate(180 355.769 729)" fill="url(#paint7_linear_2336_2)" fill-opacity="0.19"/>
<rect x="354.769" y="728" width="48.7692" height="46" rx="7" transform="rotate(180 354.769 728)" stroke="url(#paint8_linear_2336_2)" stroke-opacity="0.19" stroke-width="2" style="mix-blend-mode:plus-lighter"/>
</g>
<path d="M330.039 690.397C321.819 690.488 315.228 697.227 315.32 705.448C315.411 713.668 322.15 720.258 330.37 720.167C338.591 720.075 345.181 713.336 345.09 705.116C344.998 696.896 338.259 690.305 330.039 690.397ZM337.661 706.439L331.459 706.508L331.528 712.71C331.536 713.396 330.986 713.957 330.301 713.965C329.617 713.972 329.055 713.424 329.047 712.738L328.978 706.536L322.776 706.605C322.091 706.613 321.529 706.064 321.522 705.378C321.514 704.692 322.064 704.132 322.748 704.124L328.95 704.055L328.881 697.853C328.874 697.167 329.423 696.606 330.108 696.599C330.793 696.591 331.355 697.139 331.362 697.825L331.431 704.027L337.633 703.958C338.318 703.951 338.88 704.499 338.888 705.185C338.895 705.871 338.346 706.432 337.661 706.439Z" fill="url(#paint9_linear_2336_2)"/>
<g filter="url(#filter5_b_2336_2)">
<rect x="1237.46" y="583" width="90.1346" height="43" rx="8" transform="rotate(180 1237.46 583)" fill="url(#paint10_linear_2336_2)" fill-opacity="0.19"/>
<rect x="1236.46" y="582" width="88.1346" height="41" rx="7" transform="rotate(180 1236.46 582)" stroke="url(#paint11_linear_2336_2)" stroke-opacity="0.19" stroke-width="2" style="mix-blend-mode:plus-lighter"/>
</g>
<circle cx="1211.21" cy="561.288" r="4.74951" transform="rotate(-180 1211.21 561.288)" fill="#02CEFE"/>
<circle cx="1174.4" cy="561.288" r="4.74951" transform="rotate(-180 1174.4 561.288)" fill="#02CEFE" fill-opacity="0.1"/>
<circle cx="1192.81" cy="561.288" r="4.74951" transform="rotate(-180 1192.81 561.288)" fill="#02CEFE" fill-opacity="0.5"/>
<g filter="url(#filter6_b_2336_2)">
<rect x="1139.92" y="729" width="50.7692" height="48" rx="8" transform="rotate(180 1139.92 729)" fill="url(#paint12_linear_2336_2)" fill-opacity="0.19"/>
<rect x="1138.92" y="728" width="48.7692" height="46" rx="7" transform="rotate(180 1138.92 728)" stroke="url(#paint13_linear_2336_2)" stroke-opacity="0.19" stroke-width="2" style="mix-blend-mode:plus-lighter"/>
</g>
<path d="M1115.46 690.23C1107.05 690.23 1100.23 696.843 1100.23 705C1100.23 713.156 1107.05 719.769 1115.46 719.769C1123.87 719.769 1130.69 713.156 1130.69 705C1130.69 696.843 1123.87 690.23 1115.46 690.23ZM1123.97 702.178L1114.38 711.482C1114.14 711.714 1113.82 711.843 1113.48 711.843C1113.14 711.843 1112.82 711.714 1112.58 711.482L1108.2 707.232C1107.7 706.751 1107.7 705.973 1108.2 705.492C1108.7 705.011 1109.5 705.011 1110 705.492L1113.48 708.872L1122.18 700.437C1122.68 699.956 1123.48 699.956 1123.97 700.437C1124.47 700.918 1124.47 701.696 1123.97 702.178Z" fill="url(#paint14_linear_2336_2)"/>
<g filter="url(#filter7_d_2336_2)">
<ellipse cx="180.507" cy="855.498" rx="6.30568" ry="6.28378" transform="rotate(27.778 180.507 855.498)" fill="url(#paint15_radial_2336_2)"/>
</g>
<g filter="url(#filter8_f_2336_2)">
<circle cx="721.5" cy="712.499" r="708.591" stroke="url(#paint16_linear_2336_2)" stroke-opacity="0.02" stroke-width="2"/>
</g>
<circle cx="723.105" cy="714.105" r="559.288" stroke="url(#paint17_linear_2336_2)" stroke-opacity="0.05" stroke-width="2"/>
<path d="M1109.01 714.105C1109.01 929.012 935.512 1103.22 721.5 1103.22C507.488 1103.22 333.99 929.012 333.99 714.105C333.99 499.199 507.488 324.99 721.5 324.99C935.512 324.99 1109.01 499.199 1109.01 714.105Z" stroke="url(#paint18_linear_2336_2)" stroke-opacity="0.1" stroke-width="2"/>
<g filter="url(#filter9_d_2336_2)">
<ellipse cx="1206.51" cy="433.498" rx="6.30568" ry="6.28378" transform="rotate(27.778 1206.51 433.498)" fill="url(#paint19_radial_2336_2)"/>
</g>
<g filter="url(#filter10_d_2336_2)">
<ellipse cx="180.507" cy="855.498" rx="6.30568" ry="6.28378" transform="rotate(27.778 180.507 855.498)" fill="url(#paint20_radial_2336_2)"/>
</g>
<defs>
<filter id="filter0_f_2336_2" x="182.5" y="218.5" width="1074" height="712" filterUnits="userSpaceOnUse" color-interpolation-filters="sRGB">
<feFlood flood-opacity="0" result="BackgroundImageFix"/>
<feBlend mode="normal" in="SourceGraphic" in2="BackgroundImageFix" result="shape"/>
<feGaussianBlur stdDeviation="115.75" result="effect1_foregroundBlur_2336_2"/>
</filter>
<filter id="filter1_f_2336_2" x="-8.89999" y="337.1" width="1456.8" height="593.8" filterUnits="userSpaceOnUse" color-interpolation-filters="sRGB">
<feFlood flood-opacity="0" result="BackgroundImageFix"/>
<feBlend mode="normal" in="SourceGraphic" in2="BackgroundImageFix" result="shape"/>
<feGaussianBlur stdDeviation="106.45" result="effect1_foregroundBlur_2336_2"/>
</filter>
<filter id="filter2_b_2336_2" x="274.892" y="367.128" width="889.14" height="576.097" filterUnits="userSpaceOnUse" color-interpolation-filters="sRGB">
<feFlood flood-opacity="0" result="BackgroundImageFix"/>
<feGaussianBlur in="BackgroundImageFix" stdDeviation="21.2"/>
<feComposite in2="SourceAlpha" operator="in" result="effect1_backgroundBlur_2336_2"/>
<feBlend mode="normal" in="SourceGraphic" in2="effect1_backgroundBlur_2336_2" result="shape"/>
</filter>
<filter id="filter3_b_2336_2" x="193.6" y="528.6" width="130.3" height="65.8" filterUnits="userSpaceOnUse" color-interpolation-filters="sRGB">
<feFlood flood-opacity="0" result="BackgroundImageFix"/>
<feGaussianBlur in="BackgroundImageFix" stdDeviation="5.7"/>
<feComposite in2="SourceAlpha" operator="in" result="effect1_backgroundBlur_2336_2"/>
<feBlend mode="normal" in="SourceGraphic" in2="effect1_backgroundBlur_2336_2" result="shape"/>
</filter>
<filter id="filter4_b_2336_2" x="293.6" y="669.6" width="73.569" height="70.8" filterUnits="userSpaceOnUse" color-interpolation-filters="sRGB">
<feFlood flood-opacity="0" result="BackgroundImageFix"/>
<feGaussianBlur in="BackgroundImageFix" stdDeviation="5.7"/>
<feComposite in2="SourceAlpha" operator="in" result="effect1_backgroundBlur_2336_2"/>
<feBlend mode="normal" in="SourceGraphic" in2="effect1_backgroundBlur_2336_2" result="shape"/>
</filter>
<filter id="filter5_b_2336_2" x="1135.93" y="528.6" width="112.935" height="65.8" filterUnits="userSpaceOnUse" color-interpolation-filters="sRGB">
<feFlood flood-opacity="0" result="BackgroundImageFix"/>
<feGaussianBlur in="BackgroundImageFix" stdDeviation="5.7"/>
<feComposite in2="SourceAlpha" operator="in" result="effect1_backgroundBlur_2336_2"/>
<feBlend mode="normal" in="SourceGraphic" in2="effect1_backgroundBlur_2336_2" result="shape"/>
</filter>
<filter id="filter6_b_2336_2" x="1077.75" y="669.6" width="73.569" height="70.8" filterUnits="userSpaceOnUse" color-interpolation-filters="sRGB">
<feFlood flood-opacity="0" result="BackgroundImageFix"/>
<feGaussianBlur in="BackgroundImageFix" stdDeviation="5.7"/>
<feComposite in2="SourceAlpha" operator="in" result="effect1_backgroundBlur_2336_2"/>
<feBlend mode="normal" in="SourceGraphic" in2="effect1_backgroundBlur_2336_2" result="shape"/>
</filter>
<filter id="filter7_d_2336_2" x="170.205" y="849.209" width="20.6045" height="20.5791" filterUnits="userSpaceOnUse" color-interpolation-filters="sRGB">
<feFlood flood-opacity="0" result="BackgroundImageFix"/>
<feColorMatrix in="SourceAlpha" type="matrix" values="0 0 0 0 0 0 0 0 0 0 0 0 0 0 0 0 0 0 127 0" result="hardAlpha"/>
<feOffset dy="4"/>
<feGaussianBlur stdDeviation="2"/>
<feComposite in2="hardAlpha" operator="out"/>
<feColorMatrix type="matrix" values="0 0 0 0 0 0 0 0 0 0 0 0 0 0 0 0 0 0 0.25 0"/>
<feBlend mode="normal" in2="BackgroundImageFix" result="effect1_dropShadow_2336_2"/>
<feBlend mode="normal" in="SourceGraphic" in2="effect1_dropShadow_2336_2" result="shape"/>
</filter>
<filter id="filter8_f_2336_2" x="9.30845" y="0.307227" width="1424.38" height="1424.38" filterUnits="userSpaceOnUse" color-interpolation-filters="sRGB">
<feFlood flood-opacity="0" result="BackgroundImageFix"/>
<feBlend mode="normal" in="SourceGraphic" in2="BackgroundImageFix" result="shape"/>
<feGaussianBlur stdDeviation="1.3" result="effect1_foregroundBlur_2336_2"/>
</filter>
<filter id="filter9_d_2336_2" x="1196.21" y="427.209" width="20.6045" height="20.5791" filterUnits="userSpaceOnUse" color-interpolation-filters="sRGB">
<feFlood flood-opacity="0" result="BackgroundImageFix"/>
<feColorMatrix in="SourceAlpha" type="matrix" values="0 0 0 0 0 0 0 0 0 0 0 0 0 0 0 0 0 0 127 0" result="hardAlpha"/>
<feOffset dy="4"/>
<feGaussianBlur stdDeviation="2"/>
<feComposite in2="hardAlpha" operator="out"/>
<feColorMatrix type="matrix" values="0 0 0 0 0 0 0 0 0 0 0 0 0 0 0 0 0 0 0.25 0"/>
<feBlend mode="normal" in2="BackgroundImageFix" result="effect1_dropShadow_2336_2"/>
<feBlend mode="normal" in="SourceGraphic" in2="effect1_dropShadow_2336_2" result="shape"/>
</filter>
<filter id="filter10_d_2336_2" x="170.205" y="849.209" width="20.6045" height="20.5791" filterUnits="userSpaceOnUse" color-interpolation-filters="sRGB">
<feFlood flood-opacity="0" result="BackgroundImageFix"/>
<feColorMatrix in="SourceAlpha" type="matrix" values="0 0 0 0 0 0 0 0 0 0 0 0 0 0 0 0 0 0 127 0" result="hardAlpha"/>
<feOffset dy="4"/>
<feGaussianBlur stdDeviation="2"/>
<feComposite in2="hardAlpha" operator="out"/>
<feColorMatrix type="matrix" values="0 0 0 0 0 0 0 0 0 0 0 0 0 0 0 0 0 0 0.25 0"/>
<feBlend mode="normal" in2="BackgroundImageFix" result="effect1_dropShadow_2336_2"/>
<feBlend mode="normal" in="SourceGraphic" in2="effect1_dropShadow_2336_2" result="shape"/>
</filter>
<radialGradient id="paint0_radial_2336_2" cx="0" cy="0" r="1" gradientUnits="userSpaceOnUse" gradientTransform="translate(497.918 593.904) rotate(90) scale(9.54151 9.57478)">
<stop stop-color="#8393E8"/>
<stop offset="1" stop-color="#0029FF"/>
</radialGradient>
<linearGradient id="paint1_linear_2336_2" x1="787.642" y1="525.741" x2="651.282" y2="784.612" gradientUnits="userSpaceOnUse">
<stop stop-color="#4DDCE2"/>
<stop offset="0.616666" stop-color="#6249F0"/>
<stop offset="1" stop-color="#131316" stop-opacity="0"/>
</linearGradient>
<radialGradient id="paint2_radial_2336_2" cx="0" cy="0" r="1" gradientUnits="userSpaceOnUse" gradientTransform="translate(326.682 507.672) rotate(90) scale(7.15148 7.17641)">
<stop stop-color="white"/>
<stop offset="1" stop-color="#4DDCE2"/>
</radialGradient>
<radialGradient id="paint3_radial_2336_2" cx="0" cy="0" r="1" gradientUnits="userSpaceOnUse" gradientTransform="translate(1109.75 794.747) rotate(90) scale(4.98886 5.00625)">
<stop stop-color="white"/>
<stop offset="1" stop-color="#4DDCE2"/>
</radialGradient>
<linearGradient id="paint4_linear_2336_2" x1="366.25" y1="583" x2="366.25" y2="626" gradientUnits="userSpaceOnUse">
<stop stop-color="#131315"/>
<stop offset="1" stop-color="#0D0D10"/>
</linearGradient>
<linearGradient id="paint5_linear_2336_2" x1="366.25" y1="583" x2="366.25" y2="626" gradientUnits="userSpaceOnUse">
<stop stop-color="#6234F4"/>
<stop offset="1" stop-color="#4AF2E1"/>
</linearGradient>
<linearGradient id="paint6_linear_2336_2" x1="258.75" y1="546.615" x2="258.75" y2="579.692" gradientUnits="userSpaceOnUse">
<stop stop-color="#4DDCE2"/>
<stop offset="1" stop-color="#4DDCE2" stop-opacity="0.1"/>
</linearGradient>
<linearGradient id="paint7_linear_2336_2" x1="381.154" y1="729" x2="381.154" y2="777" gradientUnits="userSpaceOnUse">
<stop stop-color="#131315"/>
<stop offset="1" stop-color="#0D0D10"/>
</linearGradient>
<linearGradient id="paint8_linear_2336_2" x1="381.154" y1="729" x2="381.154" y2="777" gradientUnits="userSpaceOnUse">
<stop stop-color="#6234F4"/>
<stop offset="1" stop-color="#4AF2E1"/>
</linearGradient>
<linearGradient id="paint9_linear_2336_2" x1="330.039" y1="690.397" x2="330.37" y2="720.167" gradientUnits="userSpaceOnUse">
<stop stop-color="#02CEFE"/>
<stop offset="1" stop-color="#459697" stop-opacity="0.1"/>
</linearGradient>
<linearGradient id="paint10_linear_2336_2" x1="1282.53" y1="583" x2="1282.53" y2="626" gradientUnits="userSpaceOnUse">
<stop stop-color="#131315"/>
<stop offset="1" stop-color="#0D0D10"/>
</linearGradient>
<linearGradient id="paint11_linear_2336_2" x1="1282.53" y1="583" x2="1282.53" y2="626" gradientUnits="userSpaceOnUse">
<stop stop-color="#6234F4"/>
<stop offset="1" stop-color="#4AF2E1"/>
</linearGradient>
<linearGradient id="paint12_linear_2336_2" x1="1165.31" y1="729" x2="1165.31" y2="777" gradientUnits="userSpaceOnUse">
<stop stop-color="#131315"/>
<stop offset="1" stop-color="#0D0D10"/>
</linearGradient>
<linearGradient id="paint13_linear_2336_2" x1="1165.31" y1="729" x2="1165.31" y2="777" gradientUnits="userSpaceOnUse">
<stop stop-color="#6234F4"/>
<stop offset="1" stop-color="#4AF2E1"/>
</linearGradient>
<linearGradient id="paint14_linear_2336_2" x1="1115.46" y1="690.23" x2="1115.46" y2="719.769" gradientUnits="userSpaceOnUse">
<stop stop-color="#4DDCE2"/>
<stop offset="1" stop-color="#459697" stop-opacity="0.1"/>
</linearGradient>
<radialGradient id="paint15_radial_2336_2" cx="0" cy="0" r="1" gradientUnits="userSpaceOnUse" gradientTransform="translate(180.507 855.498) rotate(90) scale(6.28378 6.30568)">
<stop stop-color="white"/>
<stop offset="1" stop-color="#7F03FA"/>
</radialGradient>
<linearGradient id="paint16_linear_2336_2" x1="721.5" y1="2.90723" x2="721.5" y2="1422.09" gradientUnits="userSpaceOnUse">
<stop stop-color="#DCEEF7"/>
<stop offset="1" stop-color="#13263F"/>
</linearGradient>
<linearGradient id="paint17_linear_2336_2" x1="723.105" y1="153.816" x2="723.105" y2="1274.39" gradientUnits="userSpaceOnUse">
<stop stop-color="white"/>
<stop offset="1" stop-color="#163050"/>
</linearGradient>
<linearGradient id="paint18_linear_2336_2" x1="721.5" y1="323.99" x2="721.5" y2="1104.22" gradientUnits="userSpaceOnUse">
<stop stop-color="white"/>
<stop offset="1" stop-color="#181735"/>
</linearGradient>
<radialGradient id="paint19_radial_2336_2" cx="0" cy="0" r="1" gradientUnits="userSpaceOnUse" gradientTransform="translate(1206.51 433.498) rotate(90) scale(6.28378 6.30568)">
<stop stop-color="white"/>
<stop offset="1" stop-color="#7F03FA"/>
</radialGradient>
<radialGradient id="paint20_radial_2336_2" cx="0" cy="0" r="1" gradientUnits="userSpaceOnUse" gradientTransform="translate(180.507 855.498) rotate(90) scale(6.28378 6.30568)">
<stop stop-color="white"/>
<stop offset="1" stop-color="#E2834D"/>
</radialGradient>
</defs>
</svg>
