<svg version="1.2" xmlns="http://www.w3.org/2000/svg" viewBox="0 0 550 550" width="550" height="550">
	<title>discord-logo</title>
	<style>
		.s0 { fill: #5865f2 } 
		.s1 { fill: #ffffff } 
	</style>
	<path fill-rule="evenodd" class="s0" d="m275 19c141.4 0 256 114.6 256 256 0 141.4-114.6 256-256 256-141.4 0-256-114.6-256-256 0-141.4 114.6-256 256-256z"/>
	<g id="图层 2">
		<g id="Discord Logos">
			<path id="Discord Logo - Large - White" class="s1" d="m379.9 179.6q-7.4-3.4-15.1-6.3-7.6-2.9-15.4-5.3-7.9-2.4-15.8-4.3-8-1.9-16.1-3.3-1.1 2-2.1 4-1 2-2 4.1-1 2-2 4-0.9 2.1-1.8 4.2-4.3-0.7-8.6-1.2-4.3-0.4-8.7-0.8-4.3-0.3-8.7-0.5-4.3-0.1-8.6-0.1c-11.6 0-23.2 0.9-34.7 2.6-2.3-5.5-5-11-7.9-16.3q-8.1 1.4-16.1 3.3-7.9 1.9-15.8 4.3-7.8 2.4-15.4 5.3-7.7 3-15.1 6.4c-39.5 58.4-50.2 115.3-44.9 171.5q8.7 6.3 17.8 12 9.2 5.6 18.8 10.4 9.6 4.9 19.6 8.8 10 4 20.3 7.2c6.2-8.4 11.7-17.2 16.4-26.5q-3.3-1.2-6.6-2.6-3.3-1.4-6.6-3-3.2-1.5-6.4-3.2-3.1-1.7-6.2-3.5c2.2-1.6 4.3-3.2 6.3-4.7 23.9 11.2 50.1 17.1 76.5 17.1 26.4 0 52.6-5.9 76.5-17.1 2 1.6 4.2 3.3 6.3 4.7q-3.1 1.8-6.3 3.5-3.1 1.7-6.4 3.3-3.2 1.5-6.5 2.9-3.3 1.4-6.7 2.7 1.8 3.4 3.7 6.8 1.9 3.4 4 6.7 2 3.3 4.2 6.5 2.2 3.2 4.5 6.4 10.3-3.1 20.3-7.1 10-4 19.7-8.8 9.6-4.9 18.7-10.5 9.2-5.6 17.9-12c6.3-65.1-10.8-121.5-45-171.6zm-155.1 137c-14.9 0-27.2-13.5-27.2-30.1 0-16.7 11.8-30.3 27.1-30.3 15.3 0 27.5 13.6 27.3 30.3-0.3 16.6-12 30.1-27.2 30.1zm100.4 0c-14.9 0-27.2-13.5-27.2-30.1 0-16.7 11.9-30.3 27.2-30.3 15.3 0 27.5 13.6 27.2 30.3-0.3 16.6-12 30.1-27.2 30.1z"/>
		</g>
	</g>
</svg>