<svg version="1.2" xmlns="http://www.w3.org/2000/svg" viewBox="0 0 84 84" width="84" height="84">
	<title>youtube-logo</title>
	<style>
		.s0 { fill: #ff0002 } 
		.s1 { fill: #ffffff } 
	</style>
	<g>
		<path fill-rule="evenodd" class="s0" d="m42 78c19.9 0 36-16.1 36-36 0-19.9-16.1-36-36-36-19.9 0-36 16.1-36 36 0 19.9 16.1 36 36 36z"/>
		<path fill-rule="evenodd" class="s1" d="m66 40.2v3.6c0 3.9-0.5 7.8-0.5 7.8 0 0-0.4 3.4-1.9 4.8-1.8 2-3.9 2-4.8 2.1-6.7 0.5-16.8 0.5-16.8 0.5 0 0-12.5-0.1-16.3-0.5-1.1-0.2-3.5-0.1-5.3-2.1-1.5-1.4-1.9-4.8-1.9-4.8 0 0-0.5-3.9-0.5-7.8v-3.6c0-4 0.5-7.9 0.5-7.9 0 0 0.4-3.3 1.9-4.8 1.8-1.9 3.9-1.9 4.8-2 6.7-0.5 16.8-0.5 16.8-0.5 0 0 10.1 0 16.8 0.5 0.9 0.1 3 0.1 4.8 2 1.5 1.5 1.9 4.8 1.9 4.8 0 0 0.5 3.9 0.5 7.9zm-16 1.3l-13-6.8v13.6z"/>
	</g>
</svg>